<mxfile host="Electron" modified="2023-12-06T23:37:32.374Z" agent="Mozilla/5.0 (Windows NT 10.0; Win64; x64) AppleWebKit/537.36 (KHTML, like Gecko) draw.io/22.1.2 Chrome/114.0.5735.289 Electron/25.9.4 Safari/537.36" etag="xtAGZ-bu26uRiEZKkJLJ" version="22.1.2" type="device">
  <diagram name="Page-1" id="dUB5YQka3EaEsRO_cFRa">
    <mxGraphModel dx="2474" dy="1204" grid="0" gridSize="10" guides="1" tooltips="1" connect="1" arrows="1" fold="1" page="0" pageScale="1" pageWidth="850" pageHeight="1100" math="0" shadow="0">
      <root>
        <mxCell id="0" />
        <mxCell id="1" parent="0" />
        <mxCell id="NqkVzxVXD7pbAOxAWkke-2" value="" style="shape=image;verticalLabelPosition=bottom;labelBackgroundColor=default;verticalAlign=top;aspect=fixed;imageAspect=0;image=data:image/png,iVBORw0KGgoAAAANSUhEUgAAAMMAAACnCAYAAACsGujmAAAgAElEQVR4nO2deVRT1/bHv0BCwqAMojIpCIoM4oCvDijaB7XVVl9t6YB1dmmrT8FVq7a2zx90Wahaqm3RKm2XKCrWvuJr1U6C4JTWGScUxSgCImMQDCQhA78/KCyVkNwk5+bmhvtZi1VqTvbZyeV7z3D32dtGJpO1goODAzymHegutLS0QCqVoqGhAU1NTVAqlU+8zufz4eTkBBcXFzg7O8Pe3p4hT7svnBgII5FIUFRUhMLCQojFYly8eBFXrlwBALS2tqK1tbXj98exsbHp+G/770OHDkVERAQCAwMRFhaG4OBguLu7m/HTdC9suGmSaUgkEohEIohEIuzcuROtra1Qq9XQaDRQq9UdP8ZgZ2fX8WNraws7OzvY2Nhg3rx5GDduHMaNG8eJgyCcGIygvLwcv/32GzIzM3Hr1i2oVCqoVCq0tLSYpX97e3vweDzweDwEBQVhzpw5mDJlCnx9fc3Sv7XCicEADh06hE2bNuH69etQKpVQKBTQaDSM+mRrawuBQAA+n4/Q0FCsWLEC06ZNY9QntsKJQQ8SiQTfffcdNm3aBKVSCblczrgAusLW1hZCoRB8Ph8rV67EggULuGmUAXBi6AKJRIKNGzciIyMDCoUCCoWCaZcMQigUwt7eHvPnz8fq1as5UVCAE8NTSKVSfPbZZ9i+fTvkcrnZ1gF0YW9vD6FQiMWLF2PVqlVwdnZm2iWLhRPDY+zbtw/vvvsu5HI560YCfQgEAgiFQmzevBkzZsxg2h2LhBMDgHv37mHWrFm4c+cOJBIJ0+7Qiru7OwICArBnzx74+fkx7Y5FYcu0A0yzZcsWREdHo6CgwOqFALSthQoKChAdHY0tW7Yw7Y5F0W1Hhvr6erz++usoLCzEw4cPmXaHEVxdXREWFob//ve/cHNzY9odxumWI4NIJMKoUaNw5syZbisEAHj48CHOnDmDUaNGQSQSMe0O43Q7MWRkZOCtt95CeXk5VCoV0+4wjkqlQnl5Od566y1kZGQw7Q6jdKtp0gcffIBdu3Z169FAF66urpg7dy7Wr1/PtCuM0G3EMGfOHPz6669oampi2hWLxsnJCS+++CIyMzOZdsXsdAsxxMbGIi8vD3K5nGlXWIFQKER0dDSys7OZdsWsWP2aITY2Frm5uZwQDEAulyM3NxexsbFMu2JWrFoMcXFxyM3NZX1IBRO0tLQgNzcXcXFxTLtiNqxWDO+//z5ycnI4IZhAS0sLcnJy8P777zPtilmwSjGkp6dj165daG5uZtoV1tPc3Ixdu3YhPT2daVdox+oW0KdOncLMmTNRXV3NtCtWRZ8+fbB3716MHz+eaVdow6rEUFFRgZiYGJSUlDDtilXi7++Po0ePwtvbm2lXaMGqxDBixAgUFRUZ/f6vvvoKANDQ0IC7d+/i999/R0VFBSn3GGPGjBkIDQ2Fi4sLeDwesrKycOrUKaNsBQcHo6CggLCHloHVpIrZuHGjSUJYtGhRx86JWq2GXC7HsmXLUF1dDZFIhG3btqG2tpaUu7STkJCAZ599Fj4+PvDw8ICjo2NHdo3evXsbLYaioiJs3LgRq1evJuwx81jFyFBYWIjnn3/epBDsnJwcrfNhlUqFR48e4cGDB7h8+TK2bNmCixcvmuIuraSmpiIqKgpeXl7o2bMnBAJBpzZNTU3w8PAwug93d3ccOXIEYWFhprhqcViFGMLDw3H79m2TbEgkEjg4OOhs09TUhMrKSly6dAmJiYkQi8Um9UmSdhH4+/ujZ8+eetu/9tpr+OWXX4zub+DAgbh69arR77dEWD9NSk9PN1kIzz77rF4hAG1xO4GBgfD29saQIUOQm5uLlStX6nxPcHAwBg8eDB8fH/Tq1QsuLi5wdHTsOLAPtO3ny+VyyOVyNDU1QSKRoLKyEjdv3tQ7CiUkJGDmzJmURdDOlClTTBLD7du3kZ6ejnfeecdoG5YGq8VQWVmJlJQUk+1ERUUZ1N7BwQGDBw+Gl5cXoqKisHHjRmRnZyM4OBjR0dEIDg5G//794eXlBaFQCEdHR9jb24PP53dkx7OxsYGtbdtjHo1Gg9bWVmg0Gmg0mo6EZDKZDE1NTZBKpbh37x7EYjFEIhGOHTuG4OBgrF+/HhEREejdu7fBnzk4ONjg9zxNSkoKXn75ZXh6eppsyxJg9TQpPj4e3333ncl2MjIyTAo7uH//PiorK9GjRw+4urrCwcEBAoGAWPLg9gW9QqFAY2MjGhsbIRQK4e/vb3QfFRUVCAwMNNm3hQsXIi0tzWQ7lgBrxSAWizFhwgQi55YPHTqE5557ziQbGo2m407PBpqbm9GrVy+T7bi7u+PEiRNEhMU07Ll6T7F+/XpiB/h79Ohhsg02CQFoC9MmgUQisZrDQOy6gn8jFotx8OBBYvbs7OyI2WILJMV78OBBi9pZMxZWiiE9PR2NjY3E7EmlUmK22IJMJiNmq7Gx0SoC+VgnhsbGRmRlZRG1WVVVRdQeGyCdIyorK4voDYoJWCeGgwcPoq6ujqjNmzdvErXHBu7du0fUXl1dHdGpKxOwTgzJycnEbbL9IhrDhQsXiNuk49qYE1aJ4cqVK7SEZ9+6dQuVlZXE7VoyW7duJW6zpKSko34dG2GVGOi6gyuVyo6igt0FJycnWuyyeZRllRh27NhBi91t27Z1u2IedO3+0HWNzAFrxFBcXIwHDx4Qtztv3jy8+uqr4PP5xG1bMhEREfjss8+I233w4AGKi4uJ2zUHrBGDsYdRdNGnTx+sWrXKoGhPa8HW1hZz5szBq6++Stw2HdfKHLBGDAcOHCBuc82aNQgICCBuly307NkTa9euJW6XjmtlDlghBqVSidOnTxO1GRQU1K0SZHVFcHAwFi9eTNTm6dOnoVQqido0B6wQw927d4mHTPz73/+Gq6srUZtsJT4+nqg9qVSKu3fvErVpDlghhmvXrhG3+dprrxG3yVb8/f0RExND1CYd14xuWCGGS5cuEbU3depUIrH81oKtrS3efPNNojZJXzNzwAox/Pnnn0Tt0bGDwnaeffZZovZIXzNzwAoxXL58mai9UaNGEbVnDXh5eRFdQ5G+ZubA4sXQfiCeJL6+vkTtWQM8Hg/jxo0jZk8qlbKuSpLFi4F03L2Pj4/WxFocbek5ScK2utoWL4b6+nqi9gYMGEDUnjXRt29fovZIXzu6sXgxkK7MaS05fuiARGKEx2FbVVWLFwPpo4SkskJYI6SDFdl2DNTixUC6MCHJg/DWhkajIWqPbUUlu50YumMmDKqQ/q45MRCG9N2KK2/VNaTn+KSvHd1YvBhI5Stt586dO0TtWROkbxSkrx3dWLwYHB0didpraGggas+aKC0tJWqP9LWjG4sXAx27P2x7GGQuSJ9QY9vOncWLwdnZmbhNrhpoZ1QqFe7fv0/UJh3Xjk4sXgx0HMAxpRCitUJHsgW2HZ6yeDEYU5VGHydOnCBuk+3QUZ+NjmtHJxYvBhcXF+I2c3NzoVKpiNtlMzk5OcRt0nHt6MTixWBvbw8fHx+iNu/fv98tkw13hUKhMKnYoTb8/Py4rVU6GDNmDHGb2dnZxG2ylStXrqCsrIyozdGjRxO1Zw66rRj279/PhWb8zbZt24jbfOaZZ4jbpBtWiCE8PJy4zTt37uDo0aPE7bINsVhMfIoE0HPN6IYVYggLC6PFbmpqarcfHdLS0mgJtabrmtEJK8Tg4eFBS2nV8+fPY8+ePcTtsoVLly5h//79xO0GBgbCw8ODuF26YYUYAGDy5Mm02E1LS8P169dpsW3JSKVSJCUl0XIaja5rRTesEQPpjG/t3LlzB4mJiaw7omgqGzduxB9//EGL7SlTptBil25YI4aIiAjabB8+fBgpKSmsO4xiLPv378e3335Lm306rxWdsEYMffv2xfjx42mzn5aWhuTkZDQ3N9PWhyWwf/9+JCcn0zYSjh8/Hm5ubrTYphvWiAEAFi1aRKv91NRUfPLJJ6ioqKC1HyaQy+XYvn07kpOTaa2sQ/c1ohMbmUzWyrQTVKmqqoK/vz/t/cyfPx9xcXGYMGEC7X2Zg+LiYmRmZiIjI4N4De3HEQqFKCoqIp5/yVzwmHbAEPr27YupU6fi8OHDtPaTkZEBsViMEydOIC4uDgMHDqS1P7qor6/Hzz//jPz8fPzwww+09/fSSy+xVggAy0YGADh37hzlO7arqytGjRoFZ2dnaDQa1NbWGnyaKy4uDkOHDsULL7yA0NBQY1w2OxUVFTh58iTOnj2LgwcPory83Cz9njhxgpVhGO2wTgwtLS2Ijo6mVOF+7dq1mDRpEpycnNDa2ora2lqcPHkSxcXFBt0pHR0dMXnyZISEhGDkyJEIDQ2Fr68v7OzsTPkoRKmqqoJYLEZeXh4qKipw6tQps1bdHD16NI4cOcK6SNXHYdU0CWgL6Y6Pj8e8efP0th0wYECnO9XEiRNRXFyMgIAA7Nu3D/fu3dNrp7m5uaNo38iRIxESEgJfX18EBgZi0KBB8PT0hJubm9mqhjY3N+Phw4eoqalBcXExioqKUF1djdu3byM/P98sPjxNfHw8q4UAsHBkANrSFk6aNAlXrlzR2W748OF477338Morr3S6i6vVauzbtw+ff/650cdA/fz8tIph0qRJxEOY79y5gwMHDkAulz8hhtu3bzN+jHXo0KHIyclhfQlh1o0MQFvJ1vj4eL3beJcuXUJycjIKCwsxe/bsJ8rc2tnZYdasWRAKhVi1ahUqKysN9uPevXudRhZPT09MmjTJYFtU+P333yESiWixbQrx8fGsFwIA2P3nP/9JYtoJY/D390d+fr7eg+zti+aHDx9i0KBBnc7lhoaGgs/n48iRI0T8SkxMpKVMlpubG3r37k1LYJ0pjB49GklJSVZR84JVD90ep310oEpWVhY2b96M2traTq8tWLCASHDZsGHDKK1ljGXKlCmYOnUqbfaNISEhwSpGBYDFYgCA6dOnIzo6mnL7PXv2YNOmTVCr1U/8u4ODAz7++GOTH+gtXbqU9lxBH3/8Ma32DSE6OhovvfQS024Qg9ViEAgESExMNOjOtHnzZuTl5XX696FDh2LVqlVG3+UEAoFZojVDQ0Mt4hSZq6srEhMTrWJ61A6rxQC0Ve5csGCBQe/55JNPupwuJSQkGJXvZ8SIEWY70BIXF2eWfnSxcOFCq6uaynoxAMCqVasQFRVFuf3Zs2e7POH2/vvv47333jO48qU5a0uPHTvWbH1pIyoqCu+++y6jPtABK58zaOPUqVOYPXs25S1SHx8fiESiLmNpjh8/jv/9738oLi7GzZs3teYhDQ8Ph5+fH/r164eFCxeaLVyjvLwcgwYNMktfT+Pp6Yndu3fTGk7PFFYjBqBtPfDhhx8a1H7x4sVdvq5QKHD58mVcvHgRYrEYSqUSra2tHU9aIyMjMXjwYAQFBYHHM98jm8bGRsYC4lJSUqxyVACsTAwKhQKLFy/G999/T6l9eHg4cnNzKS+aFQoFNBoNHBwcTHHTZFQqFfHKnFSIi4vD9u3brWrR/DhWsWZoRyAQIDk5GS+88AKl9levXkVWVpZB9pkWAgCzjkLtvPDCC0hOTrZaIQBWJgYA8Pb2RlJSEuWdjtTUVBw7doxmr9jNqFGjkJSUBG9vb6ZdoRWrEwPQFqC3cuVKBAUF6W17//59bNiwAcePHzeDZ+wjKCgIK1euxPDhw5l2hXZYGahHhWnTpqGxsREpKSl6ixoeO3YMDQ0NWLJkCSZMmAA/Pz8zeWnZBAQEYPXq1Zg2bRrTrpgFq1pAayMjIwObNm3C7du3KbV/5513Og7weHt7o0ePHnBwcNB6kEcul0Mmk6GhoQHe3t5mjeene+0SEBCAlStXYv78+bT2Y0lYvRgAIDMzE1988QVu3LhB+T2TJk1CWFgYPD090bNnT62L1kePHqGhoQEPHjzA//3f/5k1pSKdYggJCUF8fHy3EgLQTcQAAD/88APS0tJw/vx5WuzfunUL/fr1o8W2NugSQ0REBJYvX4433niDFvuWjNWuGZ7mjTfeQK9evbB582YuFX0XREdHY/ny5Xj++eeZdoURuo0YgLZ8rZ6enkhOTsYvv/yClpYWpl0yiqdD0Ekwffp0fPjhhxYREcsU3UoMQFvdgC1btqB3797Iy8ujvLDWh0ajIWKHCiTFEBAQgMjISHz66aesTCNPkm6zZtBGZmYm9u/fr/V8g6HcuHHDLNn+gLZ0OSQqaUZFRWHGjBndbqHcFd1uZHicOXPmYMSIEfjiiy9w+vRpvc8jLAVTR4Z+/fohMjISy5Ytwz/+8Q9CXrGfbj0ytKNSqbB7924cOnQIeXl5UCgUBtsoLCx8IvsGnUilUqMLjk+aNAmTJ0/GvHnz4OjoSNgzdsOJ4TGKi4uxYcMGFBUVUcrY9zjXrl2jpdSWNowRw7Bhw9C/f38kJiayst6aOeDEoIW//voLmzdvRmlpKS5fvkzpPZcuXcLgwYNp9qwNQ8TQLoLFixcblDyhO8KJQQfHjh3D119/jcrKSty8eVNnVcyrV6+aLVu3TCaDu7t7l6/z+XyEh4fDx8eHE4EBcGKgwIULF7Bv3z7cuHED5eXluHXr1hOvh4SE4OTJk3BycjKbT+PGjcPFixef+Dd/f3/4+vrCx8cHixYtMvgcd3eHE4MBVFZW4vjx48jOzkZ9fT0UCgV69OiBRYsWYfr06Wb1RSQS4dNPP0VjYyN4PB48PDzw/PPPY+LEiYydj2Y7nBiMpLi4GI2NjfDx8YGnpycjPlRXV6OsrAxCoZBbFBOAEwMHx99Y5Uk3Dg5j4MTAwfE3nBg4OP6GeGySTCaDTCZDS0sLlEplp2hOOzs78Hg82Nvbg8fjwcHBAXw+n7QbHBwGY7IYVCoV6urqUF1djfr6elRUVOD+/fuoq6tDQ0MDlErlE+0dHBzg5OQENzc3uLi4wNvbGz179oS7uzs8PDzg6uoKoVBoqlscHAZjtBjkcjlKS0shFoshEomQl5eHgoICox0ZPXo0IiMjERERgYEDB2Lw4MEWkbDLGGpqaiAWi3Um+2ppacGIESMM/owajabTwzZtbVxcXMwWHmIIGo0G58+fh61t1zN0pvw3amu1rKwMZ86cQVZWFn777TfiToWGhiI1NRX//Oc/9baVSCSoqalBc3Mz+Hw+PDw80KdPH51fNt3s3LkTH330kc4n0vX19cjPz8eQIUMMst3c3Kw3h5FSqUR4eDgOHjxokG1z0NzcjLCwMJ1TY6b8N2hk0Gg0KCgowI4dO7Bjxw66fML169fx22+/6RRDuy95eXk4efIkSkpK4O7ujsjISMTExGD06NG0V9HpitLSUkgkEkgkEp3tqqqqDBaDTCZDWVmZ3nba6k9YAjKZjFKmdCb8pywGtVqNY8eOYdmyZSgpKaHTJwDQOyqcO3cO8+bN6+TLmTNnsHnzZmzbtg0zZ87stotzpm4EpGDCf8pziePHj2Pq1KlmEQLQFnrcFTU1NVqF8DhLlizBpUuX6HCNw0qhJIabN2/irbfeotuXDnr16qUzyW12djYlUa5bt05vG5VKBaVSqfOHjmwUHJaH3mlSfX09Vq1ahYaGBnP4AwD417/+pfP1n376iZKdnJwcyOVynVu1OTk5ev/Y+Xw+5TT3HOxFrxh27dqFnJwc0zrh8SAUCmFrawuNRoOWlhadOYtiYmJ02jMkTWRdXR18fHy6fJ1KLTYej4dHjx5R7pODnegUQ01NDdasWWOwUVdXV3h5eaFHjx4QCARwdnaGt7c3+Hw+lEol6urqUFdXh9bWVigUCshkMtTX13fUTdO3dRgSEoLq6mpKvpCocMP2xSgHNXSKgWo5qHbs7OwQGBiIcePG4dVXX8WQIUN0xvorlUrU1NSgpKQE586dQ1ZWFtRqtd6D9VOnTqVUT6F///5WU72eg366FINMJkNKSgplQ87OzoiIiEBaWhqlIiFA21zc29sb3t7eiIyMxPLly/Hw4UO973vttdeQlpaG0tLSLtu4uLggLS2Nsv8cHF3uJl24cIHSHybQNqeOi4vDH3/8QVkIXeHq6qq3jaenJ7Zu3YqBAwdqrZvg7e2NuXPndtsEuhzG0eXIkJ2dTdnImDFjzH4Xfu655/D9998jISEBEokELS0tHQv1FStW4M033zSrPxzsR6sYVCoV9u7dS8mAq6srraEZuggLC8PRo0dRVlaGmpoaODs7mzwycXRftIqhsrKS8lbivHnzzFqko53Hnw20rzue/ndtUyhj0Wg0aG3tHNNoY2PDaFBgd0Cj0UAqlXb8yOXyJ17n8XhwcXFBjx49TNow0SqGwsJCygaYyODc2NiIa9eu6W0XFBSkNc16+3auVCql3GdBQYHWHKwCgQAjR46kbMdUTKkBLRaL0dTUpLddaGio3n4kEgnKy8v12goMDDQqn5StrS1UKhUqKytRVVWF06dP48KFCygoKEBRUdETbT08PDBx4kSMHTsWUVFR6NevH9zc3AzuU+snpvKHBgDu7u6MTEtOnTqF2NhYve1SU1OxdOlSAG13l9LSUjQ2NqK0tBRFRUWUS1o9fPgQ48eP7/L1pqYms40OpoSGvP322/jzzz/1trt37x769Omjs81PP/3U8d3qIj8/H2PGjKHsYztCoRAikQjbtm3Dzz//rLNtbW0tsrOzO9a5a9euxYwZMzBgwACD+jRJDHPnzjWoM1JQubsBT/7hyGQyLFmyhJYC6CqVyqhKn+0PG9unXzY2Nlp/b/9/AAaNZk+jL6S8nUePHukVg0wmo2TL2DCeiooKTJ482aj3rlu3Dnl5eUhPTzcoGbRWMVCN9hw9ejTljphGIpHQIgRTOHDgAK5cudJxTrw9XOXp39v/HzBNDKZMsdiGSCTCnDlz8NNPP1FO0qz123l6TtYV/fv319tGV7JeKgiFQrPWVzYn+/btY9oFq+bixYvYunUr1q5dS2kzpZMYDKlNpm8o1Wg0+PLLL42e5yqVSkybNs2oOScHBwBs2LABc+fOpbR+6CQGqvNxQP/TYqlUalBIhzYEAgEnBg6T2LJlCz7//HO97TptgTy9h6sLc6RgJ/msgIN9CIXCjsNevr6+8PX1hZeXl0GRxF9//TWl0mSdRgZDxMAm7OzsOp2es7Gx6Qgb14WtrS28vLy6fOjG0TXavjMq2Nvbo3fv3pgwYQJiY2MxZMiQjgdqlZWVyMrKwo4dOyjvkJ0/f15vvYpus73g7e3dqcQtn8+ntPXWs2dPnDhxolNCtHYb1rrAJ4Gx9bFHjBiBrKwsrcd/3dzcsG7dOgwfPhwLFy6kdAM/c+aM4WIw5E6n0WhYFYrg5+dn9Ht1ncnmIM+wYcP0fuexsbH48ccfKR0DPnHiBFasWKGzTScxGFIOVSqVcodnTMDJycngVDatra1mPY/OFCqVilK7pUuXUhLDX3/9pbdNJzEIBAJKTgBtD7I4MRjP7NmzERISovM8+NOoVCqjjuJaKyNGjKDUrrGxEa2trTpnPp3EYMgOkUQigb+/f5evty9an5432tjYQC6Xo76+nnJf1sj06dMxceJEg97T0NDAieExnJycIBAIKO0WKRQKnZlStC6ghUIhpUXJrVu3EBERodPRvLy8TsM6n8/HyZMnsXz5cr19WDNUpwKmvsfaGTlyJKUAxKamJsPFEBkZ2WnnRRtXr15FXFyczjZdLVqpbGlycFCBylFhKmjdCtKV2vFx9u7da/TWGZeljoMUpAIQtYqB6mGVqqoq3L17l4gjHBzGQnUDQt/OnVYxGFIkIisry+injBwcJKirq6PUTl9FKK1iGDJkCOX975SUFJPDtDk4TEEsFlNqpy9SoMvHx7NmzaLsTEJCAqWtLQ4O0mg0GkrxSVTWFV2KwZC8Qz/88APS0tIoHwVkG2wKOSGBsZsiTFBTU0Op3YQJE/S26fIqT5w40aDie2vXrsWaNWvQ0NAAuVwOtVrd5VpCo9GwKtpTIpF0q90vSy2BpY3Tp09Tajd06FC9bXTe8jZs2EDNo79JT0+Hp6cnvvzyS1y9ehW1tbVoaGjo9FNSUmJSZVCSUL3rX7t2jVV3TG1QDZ3Jzc3tUvxqtRrNzc0mncWmgkKhQHNzs86bkCH5gMPDw/W20TmRWrRoEdasWWPQ6TcASEpKQlJSkkHvYYqAgADcvn1bb7uXX34Zhw8fRv/+/cHj8TqyV6jVajg7O7NipBs4cCClJ7UpKSmIiYlBeHh4x1y7tbUVSqUSd+/exZYtWyhnXDSWvXv3gs/nY/bs2QgLCwOPx+u4cbX7kpiYiCtXrlCyR2Vk0LuqyMzMpJSjiK2MGTOGkhiqqqrwzDPPYMiQIRg3bhwEAgEkEgkKCwtx5MgRVtRwoJLAoZ2YmBiMGTOmo9BkWVkZ9uzZQ5drWtm5cyd27twJoO1m5OfnBycnJ6N8oVJVVa8YXnzxRcyaNcvsX4S5GD9+vEGf7dq1a53yStXW1rJCDFQjPNs5ffo05Tk53ehLJKaLhIQESu0oTZi//fZbg+sVs4Xo6GiTbbDlnDaVHRVr5O2336bUjvKeoUgkskpB9OvXT28NOWvB2dnZoOdH1sDLL79MOaseZTHY29vj3LlzVvllbtu2jWkXzMb69euZdsGsfPPNN5TbGvw06dtvv8Xhw4cNfZtRbN++HR999BHt/fTr189sn4lpevXqRfSzjhkzhujIum7dOmJ5ss6ePWvQSUyjHq3GxMRAJpMhMzNTa8p3U/Dy8sI333wDmUxmcmJjQ45TxsTE4OzZs0b18/ReONWtaDoP6ugqQRYTE4OTJ0+aZH/AgAE4fPgw8vPzMXbsWJNsPc6oUaOQn5+PzMxMk+xcu3aN0rOFx7GRyWQmh5yKxWL8/vvvOHToEKUqnE8TExOD119/HePHj6c0v5NKpdi+fbvOeCi1Wo358+cbVUjlwIEDSEtLo7STMmvWLGzduvWJILDz58/j119/1bmwVg44w0QAAADhSURBVKvVWLp0KXr16mWwf8nJyTpfV6vVCAkJweuvv67X1u7du/HVV19Rzry+Zs0avPLKK0/8oYnF4o7pyNPHhrV9xtTUVK3XTq1W44MPPnjiu/zjjz/w448/UtrxCw4Oxocffkjpc2uDiBiepqysDFVVVaiurkZdXV1H5RWg7Smok5MT+vfvj759+zJS9YcqLS0tKCsrw/379zsqxgiFQvTp0wcDBgww6g/ZUpFKpSgqKnrimgFt2VL69u2LsLAwxj9vSUkJSktLUVVV1XEsuf1vKSgoyOTkFLSIgYODjfw/Im/hsJKdAS4AAAAASUVORK5CYII=;sketch=1;curveFitting=1;jiggle=2;" vertex="1" parent="1">
          <mxGeometry x="-67" y="306" width="152" height="130.17" as="geometry" />
        </mxCell>
        <mxCell id="NqkVzxVXD7pbAOxAWkke-3" value="1" style="shape=internalStorage;whiteSpace=wrap;html=1;backgroundOutline=1;dx=7;dy=5;" vertex="1" parent="1">
          <mxGeometry x="147" y="244" width="33" height="33" as="geometry" />
        </mxCell>
        <mxCell id="NqkVzxVXD7pbAOxAWkke-4" value="2" style="shape=internalStorage;whiteSpace=wrap;html=1;backgroundOutline=1;dx=7;dy=5;" vertex="1" parent="1">
          <mxGeometry x="147" y="283" width="33" height="33" as="geometry" />
        </mxCell>
        <mxCell id="NqkVzxVXD7pbAOxAWkke-5" value="3" style="shape=internalStorage;whiteSpace=wrap;html=1;backgroundOutline=1;dx=7;dy=5;" vertex="1" parent="1">
          <mxGeometry x="147" y="322" width="33" height="33" as="geometry" />
        </mxCell>
        <mxCell id="NqkVzxVXD7pbAOxAWkke-6" value="4" style="shape=internalStorage;whiteSpace=wrap;html=1;backgroundOutline=1;dx=7;dy=5;" vertex="1" parent="1">
          <mxGeometry x="147" y="361" width="33" height="33" as="geometry" />
        </mxCell>
        <mxCell id="NqkVzxVXD7pbAOxAWkke-9" value="5" style="shape=internalStorage;whiteSpace=wrap;html=1;backgroundOutline=1;dx=7;dy=5;" vertex="1" parent="1">
          <mxGeometry x="147" y="403.17" width="33" height="33" as="geometry" />
        </mxCell>
        <mxCell id="NqkVzxVXD7pbAOxAWkke-10" value="100" style="shape=internalStorage;whiteSpace=wrap;html=1;backgroundOutline=1;dx=7;dy=5;" vertex="1" parent="1">
          <mxGeometry x="147" y="474" width="33" height="33" as="geometry" />
        </mxCell>
        <mxCell id="NqkVzxVXD7pbAOxAWkke-11" value="" style="endArrow=none;dashed=1;html=1;dashPattern=1 3;strokeWidth=2;rounded=0;" edge="1" parent="1">
          <mxGeometry width="50" height="50" relative="1" as="geometry">
            <mxPoint x="151.5" y="441" as="sourcePoint" />
            <mxPoint x="174" y="441" as="targetPoint" />
          </mxGeometry>
        </mxCell>
        <mxCell id="NqkVzxVXD7pbAOxAWkke-12" value="" style="endArrow=none;dashed=1;html=1;dashPattern=1 3;strokeWidth=2;rounded=0;" edge="1" parent="1">
          <mxGeometry width="50" height="50" relative="1" as="geometry">
            <mxPoint x="151.5" y="447" as="sourcePoint" />
            <mxPoint x="174" y="447" as="targetPoint" />
          </mxGeometry>
        </mxCell>
        <mxCell id="NqkVzxVXD7pbAOxAWkke-13" value="" style="endArrow=none;dashed=1;html=1;dashPattern=1 3;strokeWidth=2;rounded=0;" edge="1" parent="1">
          <mxGeometry width="50" height="50" relative="1" as="geometry">
            <mxPoint x="151.5" y="453" as="sourcePoint" />
            <mxPoint x="174" y="453" as="targetPoint" />
          </mxGeometry>
        </mxCell>
        <mxCell id="NqkVzxVXD7pbAOxAWkke-14" value="" style="endArrow=none;dashed=1;html=1;dashPattern=1 3;strokeWidth=2;rounded=0;" edge="1" parent="1">
          <mxGeometry width="50" height="50" relative="1" as="geometry">
            <mxPoint x="151.5" y="459" as="sourcePoint" />
            <mxPoint x="174" y="459" as="targetPoint" />
          </mxGeometry>
        </mxCell>
        <mxCell id="NqkVzxVXD7pbAOxAWkke-15" value="" style="endArrow=none;dashed=1;html=1;dashPattern=1 3;strokeWidth=2;rounded=0;" edge="1" parent="1">
          <mxGeometry width="50" height="50" relative="1" as="geometry">
            <mxPoint x="151.5" y="469" as="sourcePoint" />
            <mxPoint x="174" y="469" as="targetPoint" />
          </mxGeometry>
        </mxCell>
        <mxCell id="NqkVzxVXD7pbAOxAWkke-18" value="" style="endArrow=classic;html=1;rounded=0;entryX=0;entryY=0.75;entryDx=0;entryDy=0;" edge="1" parent="1" target="NqkVzxVXD7pbAOxAWkke-3">
          <mxGeometry width="50" height="50" relative="1" as="geometry">
            <mxPoint x="104" y="366" as="sourcePoint" />
            <mxPoint x="154" y="316" as="targetPoint" />
          </mxGeometry>
        </mxCell>
        <mxCell id="NqkVzxVXD7pbAOxAWkke-19" value="" style="endArrow=classic;html=1;rounded=0;entryX=0;entryY=0.75;entryDx=0;entryDy=0;" edge="1" parent="1" target="NqkVzxVXD7pbAOxAWkke-4">
          <mxGeometry width="50" height="50" relative="1" as="geometry">
            <mxPoint x="104" y="366" as="sourcePoint" />
            <mxPoint x="154" y="316" as="targetPoint" />
          </mxGeometry>
        </mxCell>
        <mxCell id="NqkVzxVXD7pbAOxAWkke-20" value="" style="endArrow=classic;html=1;rounded=0;entryX=0.061;entryY=0.455;entryDx=0;entryDy=0;entryPerimeter=0;" edge="1" parent="1" target="NqkVzxVXD7pbAOxAWkke-5">
          <mxGeometry width="50" height="50" relative="1" as="geometry">
            <mxPoint x="103" y="365" as="sourcePoint" />
            <mxPoint x="143" y="337" as="targetPoint" />
          </mxGeometry>
        </mxCell>
        <mxCell id="NqkVzxVXD7pbAOxAWkke-21" value="" style="endArrow=classic;html=1;rounded=0;entryX=0;entryY=0.5;entryDx=0;entryDy=0;" edge="1" parent="1">
          <mxGeometry width="50" height="50" relative="1" as="geometry">
            <mxPoint x="104" y="364" as="sourcePoint" />
            <mxPoint x="147" y="374.5" as="targetPoint" />
          </mxGeometry>
        </mxCell>
        <mxCell id="NqkVzxVXD7pbAOxAWkke-22" value="" style="endArrow=classic;html=1;rounded=0;" edge="1" parent="1">
          <mxGeometry width="50" height="50" relative="1" as="geometry">
            <mxPoint x="104" y="365" as="sourcePoint" />
            <mxPoint x="145" y="418" as="targetPoint" />
          </mxGeometry>
        </mxCell>
        <mxCell id="NqkVzxVXD7pbAOxAWkke-23" value="" style="endArrow=classic;html=1;rounded=0;" edge="1" parent="1">
          <mxGeometry width="50" height="50" relative="1" as="geometry">
            <mxPoint x="104" y="365" as="sourcePoint" />
            <mxPoint x="146" y="494" as="targetPoint" />
          </mxGeometry>
        </mxCell>
        <mxCell id="NqkVzxVXD7pbAOxAWkke-62" value="" style="group" vertex="1" connectable="0" parent="1">
          <mxGeometry x="322" y="119" width="145" height="504" as="geometry" />
        </mxCell>
        <mxCell id="NqkVzxVXD7pbAOxAWkke-31" value="Issue" style="swimlane;fontStyle=0;childLayout=stackLayout;horizontal=1;startSize=18;horizontalStack=0;resizeParent=1;resizeParentMax=0;resizeLast=0;collapsible=1;marginBottom=0;whiteSpace=wrap;html=1;" vertex="1" parent="NqkVzxVXD7pbAOxAWkke-62">
          <mxGeometry x="5" y="152" width="136" height="122" as="geometry" />
        </mxCell>
        <mxCell id="NqkVzxVXD7pbAOxAWkke-32" value="Status" style="text;strokeColor=none;fillColor=none;align=left;verticalAlign=middle;spacingLeft=4;spacingRight=4;overflow=hidden;points=[[0,0.5],[1,0.5]];portConstraint=eastwest;rotatable=0;whiteSpace=wrap;html=1;" vertex="1" parent="NqkVzxVXD7pbAOxAWkke-31">
          <mxGeometry y="18" width="136" height="18" as="geometry" />
        </mxCell>
        <mxCell id="NqkVzxVXD7pbAOxAWkke-33" value="Closing Date" style="text;strokeColor=none;fillColor=none;align=left;verticalAlign=middle;spacingLeft=4;spacingRight=4;overflow=hidden;points=[[0,0.5],[1,0.5]];portConstraint=eastwest;rotatable=0;whiteSpace=wrap;html=1;" vertex="1" parent="NqkVzxVXD7pbAOxAWkke-31">
          <mxGeometry y="36" width="136" height="15" as="geometry" />
        </mxCell>
        <mxCell id="NqkVzxVXD7pbAOxAWkke-34" value="Title" style="text;strokeColor=none;fillColor=none;align=left;verticalAlign=middle;spacingLeft=4;spacingRight=4;overflow=hidden;points=[[0,0.5],[1,0.5]];portConstraint=eastwest;rotatable=0;whiteSpace=wrap;html=1;" vertex="1" parent="NqkVzxVXD7pbAOxAWkke-31">
          <mxGeometry y="51" width="136" height="17" as="geometry" />
        </mxCell>
        <mxCell id="NqkVzxVXD7pbAOxAWkke-37" value="Body" style="text;strokeColor=none;fillColor=none;align=left;verticalAlign=middle;spacingLeft=4;spacingRight=4;overflow=hidden;points=[[0,0.5],[1,0.5]];portConstraint=eastwest;rotatable=0;whiteSpace=wrap;html=1;" vertex="1" parent="NqkVzxVXD7pbAOxAWkke-31">
          <mxGeometry y="68" width="136" height="18" as="geometry" />
        </mxCell>
        <mxCell id="NqkVzxVXD7pbAOxAWkke-38" value="category" style="text;strokeColor=none;fillColor=none;align=left;verticalAlign=middle;spacingLeft=4;spacingRight=4;overflow=hidden;points=[[0,0.5],[1,0.5]];portConstraint=eastwest;rotatable=0;whiteSpace=wrap;html=1;" vertex="1" parent="NqkVzxVXD7pbAOxAWkke-31">
          <mxGeometry y="86" width="136" height="18" as="geometry" />
        </mxCell>
        <mxCell id="NqkVzxVXD7pbAOxAWkke-39" value="Reported Date" style="text;strokeColor=none;fillColor=none;align=left;verticalAlign=middle;spacingLeft=4;spacingRight=4;overflow=hidden;points=[[0,0.5],[1,0.5]];portConstraint=eastwest;rotatable=0;whiteSpace=wrap;html=1;" vertex="1" parent="NqkVzxVXD7pbAOxAWkke-31">
          <mxGeometry y="104" width="136" height="18" as="geometry" />
        </mxCell>
        <mxCell id="NqkVzxVXD7pbAOxAWkke-40" value="Popularity Metrics" style="swimlane;fontStyle=0;childLayout=stackLayout;horizontal=1;startSize=17;horizontalStack=0;resizeParent=1;resizeParentMax=0;resizeLast=0;collapsible=1;marginBottom=0;whiteSpace=wrap;html=1;" vertex="1" parent="NqkVzxVXD7pbAOxAWkke-62">
          <mxGeometry x="5" y="277" width="136" height="70" as="geometry" />
        </mxCell>
        <mxCell id="NqkVzxVXD7pbAOxAWkke-41" value="Number of Stars" style="text;strokeColor=none;fillColor=none;align=left;verticalAlign=middle;spacingLeft=4;spacingRight=4;overflow=hidden;points=[[0,0.5],[1,0.5]];portConstraint=eastwest;rotatable=0;whiteSpace=wrap;html=1;" vertex="1" parent="NqkVzxVXD7pbAOxAWkke-40">
          <mxGeometry y="17" width="136" height="19" as="geometry" />
        </mxCell>
        <mxCell id="NqkVzxVXD7pbAOxAWkke-42" value="Number of Forks" style="text;strokeColor=none;fillColor=none;align=left;verticalAlign=middle;spacingLeft=4;spacingRight=4;overflow=hidden;points=[[0,0.5],[1,0.5]];portConstraint=eastwest;rotatable=0;whiteSpace=wrap;html=1;" vertex="1" parent="NqkVzxVXD7pbAOxAWkke-40">
          <mxGeometry y="36" width="136" height="16" as="geometry" />
        </mxCell>
        <mxCell id="NqkVzxVXD7pbAOxAWkke-43" value="Number of subscribers" style="text;strokeColor=none;fillColor=none;align=left;verticalAlign=middle;spacingLeft=4;spacingRight=4;overflow=hidden;points=[[0,0.5],[1,0.5]];portConstraint=eastwest;rotatable=0;whiteSpace=wrap;html=1;" vertex="1" parent="NqkVzxVXD7pbAOxAWkke-40">
          <mxGeometry y="52" width="136" height="18" as="geometry" />
        </mxCell>
        <mxCell id="NqkVzxVXD7pbAOxAWkke-44" value="Engagement Metrics" style="swimlane;fontStyle=0;childLayout=stackLayout;horizontal=1;startSize=30;horizontalStack=0;resizeParent=1;resizeParentMax=0;resizeLast=0;collapsible=1;marginBottom=0;whiteSpace=wrap;html=1;" vertex="1" parent="NqkVzxVXD7pbAOxAWkke-62">
          <mxGeometry x="5" y="351" width="136" height="148" as="geometry" />
        </mxCell>
        <mxCell id="NqkVzxVXD7pbAOxAWkke-45" value="Total Issues" style="text;strokeColor=none;fillColor=none;align=left;verticalAlign=middle;spacingLeft=4;spacingRight=4;overflow=hidden;points=[[0,0.5],[1,0.5]];portConstraint=eastwest;rotatable=0;whiteSpace=wrap;html=1;" vertex="1" parent="NqkVzxVXD7pbAOxAWkke-44">
          <mxGeometry y="30" width="136" height="18" as="geometry" />
        </mxCell>
        <mxCell id="NqkVzxVXD7pbAOxAWkke-46" value="Number of Contributors" style="text;strokeColor=none;fillColor=none;align=left;verticalAlign=middle;spacingLeft=4;spacingRight=4;overflow=hidden;points=[[0,0.5],[1,0.5]];portConstraint=eastwest;rotatable=0;whiteSpace=wrap;html=1;" vertex="1" parent="NqkVzxVXD7pbAOxAWkke-44">
          <mxGeometry y="48" width="136" height="18" as="geometry" />
        </mxCell>
        <mxCell id="NqkVzxVXD7pbAOxAWkke-47" value="Average duration of issues" style="text;strokeColor=none;fillColor=none;align=left;verticalAlign=middle;spacingLeft=4;spacingRight=4;overflow=hidden;points=[[0,0.5],[1,0.5]];portConstraint=eastwest;rotatable=0;whiteSpace=wrap;html=1;" vertex="1" parent="NqkVzxVXD7pbAOxAWkke-44">
          <mxGeometry y="66" width="136" height="30" as="geometry" />
        </mxCell>
        <mxCell id="NqkVzxVXD7pbAOxAWkke-48" value="Number of closed issues" style="text;strokeColor=none;fillColor=none;align=left;verticalAlign=middle;spacingLeft=4;spacingRight=4;overflow=hidden;points=[[0,0.5],[1,0.5]];portConstraint=eastwest;rotatable=0;whiteSpace=wrap;html=1;" vertex="1" parent="NqkVzxVXD7pbAOxAWkke-44">
          <mxGeometry y="96" width="136" height="30" as="geometry" />
        </mxCell>
        <mxCell id="NqkVzxVXD7pbAOxAWkke-49" value="Number of Open Issues" style="text;strokeColor=none;fillColor=none;align=left;verticalAlign=middle;spacingLeft=4;spacingRight=4;overflow=hidden;points=[[0,0.5],[1,0.5]];portConstraint=eastwest;rotatable=0;whiteSpace=wrap;html=1;" vertex="1" parent="NqkVzxVXD7pbAOxAWkke-44">
          <mxGeometry y="126" width="136" height="22" as="geometry" />
        </mxCell>
        <mxCell id="NqkVzxVXD7pbAOxAWkke-50" value="Project Metrics" style="swimlane;fontStyle=0;childLayout=stackLayout;horizontal=1;startSize=17;horizontalStack=0;resizeParent=1;resizeParentMax=0;resizeLast=0;collapsible=1;marginBottom=0;whiteSpace=wrap;html=1;" vertex="1" parent="NqkVzxVXD7pbAOxAWkke-62">
          <mxGeometry x="5" y="26" width="135" height="122" as="geometry" />
        </mxCell>
        <mxCell id="NqkVzxVXD7pbAOxAWkke-51" value="Name" style="text;strokeColor=none;fillColor=none;align=left;verticalAlign=middle;spacingLeft=4;spacingRight=4;overflow=hidden;points=[[0,0.5],[1,0.5]];portConstraint=eastwest;rotatable=0;whiteSpace=wrap;html=1;" vertex="1" parent="NqkVzxVXD7pbAOxAWkke-50">
          <mxGeometry y="17" width="135" height="17" as="geometry" />
        </mxCell>
        <mxCell id="NqkVzxVXD7pbAOxAWkke-52" value="Description" style="text;strokeColor=none;fillColor=none;align=left;verticalAlign=middle;spacingLeft=4;spacingRight=4;overflow=hidden;points=[[0,0.5],[1,0.5]];portConstraint=eastwest;rotatable=0;whiteSpace=wrap;html=1;" vertex="1" parent="NqkVzxVXD7pbAOxAWkke-50">
          <mxGeometry y="34" width="135" height="18" as="geometry" />
        </mxCell>
        <mxCell id="NqkVzxVXD7pbAOxAWkke-53" value="Size" style="text;strokeColor=none;fillColor=none;align=left;verticalAlign=middle;spacingLeft=4;spacingRight=4;overflow=hidden;points=[[0,0.5],[1,0.5]];portConstraint=eastwest;rotatable=0;whiteSpace=wrap;html=1;" vertex="1" parent="NqkVzxVXD7pbAOxAWkke-50">
          <mxGeometry y="52" width="135" height="17" as="geometry" />
        </mxCell>
        <mxCell id="NqkVzxVXD7pbAOxAWkke-54" value="Language" style="text;strokeColor=none;fillColor=none;align=left;verticalAlign=middle;spacingLeft=4;spacingRight=4;overflow=hidden;points=[[0,0.5],[1,0.5]];portConstraint=eastwest;rotatable=0;whiteSpace=wrap;html=1;" vertex="1" parent="NqkVzxVXD7pbAOxAWkke-50">
          <mxGeometry y="69" width="135" height="19" as="geometry" />
        </mxCell>
        <mxCell id="NqkVzxVXD7pbAOxAWkke-55" value="Date" style="text;strokeColor=none;fillColor=none;align=left;verticalAlign=middle;spacingLeft=4;spacingRight=4;overflow=hidden;points=[[0,0.5],[1,0.5]];portConstraint=eastwest;rotatable=0;whiteSpace=wrap;html=1;" vertex="1" parent="NqkVzxVXD7pbAOxAWkke-50">
          <mxGeometry y="88" width="135" height="17" as="geometry" />
        </mxCell>
        <mxCell id="NqkVzxVXD7pbAOxAWkke-56" value="Age" style="text;strokeColor=none;fillColor=none;align=left;verticalAlign=middle;spacingLeft=4;spacingRight=4;overflow=hidden;points=[[0,0.5],[1,0.5]];portConstraint=eastwest;rotatable=0;whiteSpace=wrap;html=1;" vertex="1" parent="NqkVzxVXD7pbAOxAWkke-50">
          <mxGeometry y="105" width="135" height="17" as="geometry" />
        </mxCell>
        <mxCell id="NqkVzxVXD7pbAOxAWkke-61" value="Dataset" style="swimlane;whiteSpace=wrap;html=1;" vertex="1" parent="NqkVzxVXD7pbAOxAWkke-62">
          <mxGeometry width="145" height="504" as="geometry" />
        </mxCell>
        <mxCell id="NqkVzxVXD7pbAOxAWkke-63" value="" style="endArrow=classic;html=1;rounded=0;" edge="1" parent="1">
          <mxGeometry width="50" height="50" relative="1" as="geometry">
            <mxPoint x="180" y="263" as="sourcePoint" />
            <mxPoint x="304" y="361" as="targetPoint" />
          </mxGeometry>
        </mxCell>
        <mxCell id="NqkVzxVXD7pbAOxAWkke-64" value="" style="endArrow=classic;html=1;rounded=0;" edge="1" parent="1">
          <mxGeometry width="50" height="50" relative="1" as="geometry">
            <mxPoint x="181" y="306" as="sourcePoint" />
            <mxPoint x="306" y="362.99" as="targetPoint" />
          </mxGeometry>
        </mxCell>
        <mxCell id="NqkVzxVXD7pbAOxAWkke-65" value="" style="endArrow=classic;html=1;rounded=0;" edge="1" parent="1">
          <mxGeometry width="50" height="50" relative="1" as="geometry">
            <mxPoint x="181" y="342" as="sourcePoint" />
            <mxPoint x="299" y="358" as="targetPoint" />
          </mxGeometry>
        </mxCell>
        <mxCell id="NqkVzxVXD7pbAOxAWkke-66" value="" style="endArrow=classic;html=1;rounded=0;" edge="1" parent="1">
          <mxGeometry width="50" height="50" relative="1" as="geometry">
            <mxPoint x="181" y="381" as="sourcePoint" />
            <mxPoint x="299" y="357" as="targetPoint" />
          </mxGeometry>
        </mxCell>
        <mxCell id="NqkVzxVXD7pbAOxAWkke-67" value="" style="endArrow=classic;html=1;rounded=0;" edge="1" parent="1">
          <mxGeometry width="50" height="50" relative="1" as="geometry">
            <mxPoint x="181" y="421" as="sourcePoint" />
            <mxPoint x="299" y="359" as="targetPoint" />
          </mxGeometry>
        </mxCell>
        <mxCell id="NqkVzxVXD7pbAOxAWkke-68" value="" style="endArrow=classic;html=1;rounded=0;" edge="1" parent="1">
          <mxGeometry width="50" height="50" relative="1" as="geometry">
            <mxPoint x="180" y="492" as="sourcePoint" />
            <mxPoint x="303" y="359" as="targetPoint" />
          </mxGeometry>
        </mxCell>
        <mxCell id="NqkVzxVXD7pbAOxAWkke-83" value="Data Analysis Tools" style="swimlane;whiteSpace=wrap;html=1;" vertex="1" parent="1">
          <mxGeometry x="537" y="169" width="172" height="416" as="geometry" />
        </mxCell>
        <mxCell id="NqkVzxVXD7pbAOxAWkke-69" value="Latent Dirichlet Allocation (LDA) Modelling tool" style="shape=cube;whiteSpace=wrap;html=1;boundedLbl=1;backgroundOutline=1;darkOpacity=0.05;darkOpacity2=0.1;size=13;fillColor=#d5e8d4;strokeColor=#82b366;" vertex="1" parent="NqkVzxVXD7pbAOxAWkke-83">
          <mxGeometry x="25" y="27" width="120" height="80" as="geometry" />
        </mxCell>
        <mxCell id="NqkVzxVXD7pbAOxAWkke-70" value="Pearson Correlation" style="shape=cube;whiteSpace=wrap;html=1;boundedLbl=1;backgroundOutline=1;darkOpacity=0.05;darkOpacity2=0.1;size=13;fillColor=#f8cecc;strokeColor=#b85450;" vertex="1" parent="NqkVzxVXD7pbAOxAWkke-83">
          <mxGeometry x="29" y="220" width="120" height="80" as="geometry" />
        </mxCell>
        <mxCell id="NqkVzxVXD7pbAOxAWkke-71" value="Other Statistical Analysis" style="shape=cube;whiteSpace=wrap;html=1;boundedLbl=1;backgroundOutline=1;darkOpacity=0.05;darkOpacity2=0.1;size=13;fillColor=#e1d5e7;strokeColor=#9673a6;" vertex="1" parent="NqkVzxVXD7pbAOxAWkke-83">
          <mxGeometry x="39" y="331" width="120" height="80" as="geometry" />
        </mxCell>
        <mxCell id="NqkVzxVXD7pbAOxAWkke-73" value="BERTopic Modelling tool" style="shape=cube;whiteSpace=wrap;html=1;boundedLbl=1;backgroundOutline=1;darkOpacity=0.05;darkOpacity2=0.1;size=13;fillColor=#fff2cc;strokeColor=#d6b656;" vertex="1" parent="NqkVzxVXD7pbAOxAWkke-83">
          <mxGeometry x="29" y="124" width="120" height="80" as="geometry" />
        </mxCell>
        <mxCell id="NqkVzxVXD7pbAOxAWkke-86" value="" style="shape=flexArrow;endArrow=classic;html=1;rounded=0;" edge="1" parent="1">
          <mxGeometry width="50" height="50" relative="1" as="geometry">
            <mxPoint x="501" y="712" as="sourcePoint" />
            <mxPoint x="567" y="712" as="targetPoint" />
          </mxGeometry>
        </mxCell>
        <mxCell id="NqkVzxVXD7pbAOxAWkke-87" value="" style="shape=flexArrow;endArrow=classic;html=1;rounded=0;" edge="1" parent="1">
          <mxGeometry width="50" height="50" relative="1" as="geometry">
            <mxPoint x="735" y="519.1" as="sourcePoint" />
            <mxPoint x="808" y="516.9978195488721" as="targetPoint" />
          </mxGeometry>
        </mxCell>
        <mxCell id="NqkVzxVXD7pbAOxAWkke-88" value="" style="rounded=0;whiteSpace=wrap;html=1;" vertex="1" parent="1">
          <mxGeometry x="794" y="341" width="120" height="60" as="geometry" />
        </mxCell>
        <mxCell id="NqkVzxVXD7pbAOxAWkke-89" value="" style="rounded=0;whiteSpace=wrap;html=1;" vertex="1" parent="1">
          <mxGeometry x="800" y="347" width="120" height="60" as="geometry" />
        </mxCell>
        <mxCell id="NqkVzxVXD7pbAOxAWkke-90" value="&lt;font style=&quot;font-size: 14px;&quot;&gt;Research Questions&lt;/font&gt;" style="rounded=0;whiteSpace=wrap;html=1;" vertex="1" parent="1">
          <mxGeometry x="806" y="353" width="120" height="60" as="geometry" />
        </mxCell>
      </root>
    </mxGraphModel>
  </diagram>
</mxfile>
